<svg role="img" viewBox="0 0 386 220" xmlns="http://www.w3.org/2000/svg"><title>Active Ants</title><path d="M19.5 90.8Q17.1 90.8 15.7 89.7Q14.2 88.6 13.9 86.8Q13.6 84.9 14.6 82.6L41 24.1Q42.3 21.2 44.2 20Q46 18.7 48.4 18.7Q50.7 18.7 52.6 20Q54.4 21.2 55.7 24.1L82.2 82.6Q83.3 84.9 83 86.8Q82.7 88.7 81.3 89.8Q79.9 90.8 77.6 90.8Q74.8 90.8 73.3 89.4Q71.7 88.1 70.5 85.3L64 70.2L69.4 73.7H27.2L32.6 70.2L26.2 85.3Q24.9 88.2 23.5 89.5Q22.1 90.8 19.5 90.8ZM48.2 33.4 34.2 66.7 31.6 63.5H65L62.5 66.7L48.4 33.4Z M126 91Q115 91 107.2 86.5Q99.3 82.1 95.1 73.9Q90.9 65.8 90.9 54.7Q90.9 46.4 93.3 39.8Q95.7 33.1 100.2 28.3Q104.7 23.6 111.3 21Q117.8 18.5 126 18.5Q131.5 18.5 136.8 19.9Q142.1 21.3 146.1 23.9Q148.2 25.2 148.9 27.1Q149.6 28.9 149.2 30.6Q148.8 32.4 147.6 33.6Q146.3 34.8 144.5 34.9Q142.6 35.1 140.4 33.7Q137.3 31.7 133.8 30.8Q130.1 29.9 126.4 29.9Q119.3 29.9 114.4 32.8Q109.5 35.7 107 41.2Q104.5 46.7 104.5 54.7Q104.5 62.6 107 68.2Q109.5 73.8 114.4 76.7Q119.3 79.6 126.4 79.6Q130.2 79.6 133.9 78.7Q137.6 77.7 140.9 75.7Q143.1 74.4 144.9 74.6Q146.6 74.7 147.8 75.8Q149 76.9 149.4 78.6Q149.8 80.2 149.2 82Q148.6 83.7 146.8 85Q142.8 87.9 137.3 89.5Q131.8 91 126 91Z M184.6 90.8Q181.5 90.8 179.9 89Q178.2 87.3 178.2 84.2V30.2H158.7Q156.1 30.2 154.7 28.7Q153.2 27.3 153.2 24.8Q153.2 22.2 154.7 20.9Q156.1 19.5 158.7 19.5H210.5Q213.1 19.5 214.6 20.9Q216 22.2 216 24.8Q216 27.3 214.6 28.7Q213.1 30.2 210.5 30.2H191V84.2Q191 87.3 189.4 89Q187.8 90.8 184.6 90.8Z M229.7 90.8Q226.6 90.8 225 89Q223.3 87.3 223.3 84.2V25.3Q223.3 22.1 225 20.4Q226.6 18.7 229.7 18.7Q232.8 18.7 234.5 20.4Q236.1 22.1 236.1 25.3V84.2Q236.1 87.3 234.5 89Q232.9 90.8 229.7 90.8Z M279.6 90.8Q276.9 90.8 275.1 89.5Q273.4 88.3 272.2 85.8L246.2 27.2Q245 24.7 245.5 22.8Q246 20.9 247.6 19.8Q249.2 18.7 251.4 18.7Q254.3 18.7 255.8 20Q257.2 21.2 258.2 23.7L281.9 78.6H277.6L301.2 23.6Q302.4 21.2 303.9 20Q305.4 18.7 308.1 18.7Q310.2 18.7 311.7 19.8Q313.1 20.9 313.5 22.8Q313.9 24.7 312.9 27.2L286.8 85.8Q285.6 88.3 284 89.5Q282.4 90.8 279.6 90.8Z M329.6 90Q326.3 90 324.6 88.2Q322.8 86.5 322.8 83.2V26.3Q322.8 23 324.6 21.2Q326.3 19.5 329.6 19.5H365.3Q367.8 19.5 369.2 20.8Q370.5 22.1 370.5 24.5Q370.5 27 369.2 28.3Q367.8 29.7 365.3 29.7H335.1V49.1H363.1Q365.8 49.1 367 50.4Q368.3 51.7 368.3 54.2Q368.3 56.7 367 58Q365.8 59.3 363.1 59.3H335.1V79.8H365.3Q367.8 79.8 369.2 81.1Q370.5 82.4 370.5 84.9Q370.5 87.4 369.2 88.7Q367.8 90 365.3 90Z M22.6 201.2Q18.5 201.2 15.8 199.3Q13.1 197.4 12.4 194.1Q11.8 190.8 13.6 186.6L46 116.9Q48.3 111.9 51.8 109.5Q55.2 107.2 59.6 107.2Q64 107.2 67.4 109.5Q70.7 111.9 73.1 116.9L105.5 186.6Q107.6 190.8 107 194.2Q106.4 197.5 103.8 199.3Q101.1 201.2 97.2 201.2Q92 201.2 89.2 198.8Q86.4 196.5 84.2 191.3L77.2 174.8L86.3 181.4H32.7L41.9 174.8L34.9 191.3Q32.6 196.5 30.1 198.8Q27.6 201.2 22.6 201.2ZM59.4 133.3 44.3 169.3 40.6 163.1H78.5L74.8 169.3L59.6 133.3Z M128.6 201.2Q123.2 201.2 120.3 198.3Q117.5 195.4 117.5 189.9V119Q117.5 113.3 120.3 110.2Q123.2 107.2 127.9 107.2Q132 107.2 134.4 108.7Q136.7 110.3 139.6 113.9L180.8 165.4H177.1V118.4Q177.1 112.9 179.9 110Q182.7 107.2 188.2 107.2Q193.6 107.2 196.4 110Q199.2 112.9 199.2 118.4V190.4Q199.2 195.3 196.6 198.2Q194 201.2 189.6 201.2Q185.2 201.2 182.7 199.5Q180.1 197.9 177.3 194.4L136.1 142.8H139.7V189.9Q139.7 195.4 136.9 198.3Q134.1 201.2 128.6 201.2Z M249.6 201.2Q243.8 201.2 240.7 198Q237.6 194.8 237.6 189.1V127.8H217.2Q212.4 127.8 209.8 125.3Q207.3 122.8 207.3 118.1Q207.3 113.3 209.8 110.8Q212.4 108.3 217.2 108.3H281.9Q286.7 108.3 289.3 110.8Q291.8 113.3 291.8 118.1Q291.8 122.8 289.3 125.3Q286.7 127.8 281.9 127.8H261.5V189.1Q261.5 194.8 258.5 198Q255.5 201.2 249.6 201.2Z M333.8 201.4Q328.6 201.4 322.9 200.7Q317.3 200 312.2 198.6Q307.1 197.1 303.1 195.2Q299.6 193.5 298.2 190.7Q296.7 187.9 297.1 184.8Q297.5 181.7 299.3 179.3Q301.2 176.9 304.1 176Q307.1 175.2 310.9 176.9Q315.8 179.2 322.1 180.5Q328.3 181.8 333.8 181.8Q342.4 181.8 345.8 179.5Q349.3 177.2 349.3 173.9Q349.3 170.9 346.9 169.1Q344.4 167.2 338.3 165.9L323.1 162.7Q310.6 160.1 304.5 153.6Q298.4 147.1 298.4 136.8Q298.4 130.1 301.2 124.5Q304 119 309.2 115.1Q314.3 111.2 321.4 109.1Q328.5 106.9 337.2 106.9Q343.9 106.9 350.9 108.4Q357.8 109.9 362.9 112.9Q365.9 114.5 367.2 117.2Q368.5 119.9 368.2 122.8Q368 125.8 366.2 128Q364.5 130.2 361.5 130.9Q358.6 131.6 354.6 129.9Q350.8 128.2 346.1 127.4Q341.3 126.5 336.9 126.5Q332.1 126.5 328.7 127.7Q325.3 128.8 323.6 130.8Q321.8 132.9 321.8 135.6Q321.8 138.4 324.1 140.3Q326.4 142.2 332.5 143.4L347.6 146.7Q360.2 149.4 366.4 155.7Q372.7 161.9 372.7 171.9Q372.7 178.7 369.9 184.1Q367.2 189.6 362.1 193.4Q357.1 197.3 349.9 199.4Q342.8 201.4 333.8 201.4Z" fill="#F06900"/></svg>