<svg role="img" viewBox="0 0 138 28" xmlns="http://www.w3.org/2000/svg"><title>Alteos</title><g clip-path="url(#a)"><path fill-rule="evenodd" clip-rule="evenodd" d="M103.003 24.1386C97.984 24.1386 93.8998 19.5919 93.8998 14C93.8998 8.40814 97.9772 3.86137 103.003 3.86137C108.028 3.86137 112.109 8.40814 112.109 14C112.109 19.5919 108.031 24.1386 103.003 24.1386ZM103.003 0C95.8671 0 90.0331 6.28066 90.0331 14C90.0331 21.7193 95.8535 28 103.003 28C110.152 28 115.975 21.7159 115.975 14C115.975 6.28405 110.155 0 103.003 0ZM131.215 12.44L126.757 11.5374C123.906 11.0352 122.458 9.71528 122.458 7.61834C122.458 5.10743 124.704 3.42105 128.041 3.42105C130.664 3.42105 132.438 4.32703 133.488 5.93876C133.914 6.59017 134.686 7.02196 135.433 7.24379C136.18 7.46562 136.981 7.41558 137.694 7.10258L137.674 7.00418C137.643 6.85489 137.609 6.70898 137.575 6.56308C136.349 1.77879 131.847 0.0720494 128.051 0.0720494C122.587 0.0720494 118.918 3.21747 118.918 7.90336C118.918 11.7919 121.184 14.1806 125.656 14.9984L130.786 16.0163C133.182 16.4303 134.551 17.8791 134.551 19.9896C134.551 22.7041 132.173 24.4685 128.537 24.4685C125.639 24.4685 123.661 23.4574 122.445 21.5471C122.024 20.8711 121.249 20.3846 120.489 20.1444C119.729 19.9042 118.908 19.9432 118.174 20.2543L118.198 20.3561C119.288 25.2422 122.954 27.9329 128.486 27.9329C134.262 27.9329 138 24.7264 138 19.7657C138 15.7211 135.781 13.3188 131.204 12.4433L131.215 12.44ZM46.0214 4.26858H54.4581V23.7281C54.4581 24.6901 54.8408 25.6127 55.522 26.2929C56.2031 26.9732 57.127 27.3553 58.0903 27.3553V4.28215H62.5585C63.0339 4.28856 63.5056 4.19808 63.9448 4.01624C64.384 3.83439 64.7814 3.565 65.1128 3.22454C65.4442 2.88408 65.7026 2.4797 65.8721 2.03613C66.0417 1.59255 66.1189 1.11911 66.099 0.644727H49.5619C48.6134 0.663431 47.7104 1.05401 47.0479 1.73207C46.3855 2.41014 46.0167 3.32126 46.0214 4.26858ZM85.7944 3.21755C85.1133 3.89705 84.19 4.27874 83.2272 4.27874H73.5673V12.1881H86.8595C86.8586 13.1495 86.4755 14.0712 85.7944 14.7507C85.1133 15.4302 84.19 15.8119 83.2272 15.8119H73.5673V23.7179H86.8595C86.8595 24.6775 86.4787 25.5981 85.8004 26.2779C85.1222 26.9578 84.2018 27.3415 83.2408 27.3451H69.9486V0.654896H86.8595C86.8586 1.61631 86.4755 2.53804 85.7944 3.21755ZM45.2602 23.7518H36.8846L36.9152 0.678589C36.4381 0.677697 35.9654 0.770772 35.5244 0.952488C35.0833 1.1342 34.6825 1.40099 34.3448 1.73759C34.0071 2.07418 33.7392 2.47397 33.5564 2.91408C33.3736 3.35419 33.2795 3.82598 33.2795 4.30244L33.2523 27.3485L48.8822 27.3654C48.8804 26.407 48.4981 25.4884 47.8192 24.811C47.1402 24.1336 46.2199 23.7527 45.2602 23.7518ZM21.1482 20.4181L23.3989 25.2787C24.5881 27.7794 26.7967 27.8235 28.1558 27.3145L24.2483 18.8318L21.1482 20.4181ZM14.1288 5.76823L5.46112 22.8928C5.04539 23.1805 3.8187 23.7767 2.60452 24.3669C1.62519 24.8429 0.653996 25.315 0.123047 25.618L12.3518 1.45898C12.535 1.10203 12.815 0.803752 13.1599 0.59822C13.5048 0.392689 13.9006 0.2882 14.3022 0.296694C14.7037 0.305188 15.0948 0.426323 15.4306 0.646255C15.7665 0.866186 16.0336 1.17604 16.2015 1.54041L22.3991 14.8346L19.178 16.1172L14.421 5.76823C14.4075 5.74106 14.3867 5.71819 14.3609 5.7022C14.3351 5.68621 14.3053 5.67774 14.2749 5.67774C14.2446 5.67774 14.2148 5.68621 14.189 5.7022C14.1632 5.71819 14.1423 5.74106 14.1288 5.76823Z"/><path d="M23.5688 15.7794C25.2677 15.1008 27.1365 15.6098 28.1558 17.6456C28.1558 17.6456 3.61007 27.3433 2.88633 27.5841C2.16259 27.825 0.558094 27.9633 0.123919 26.807C-0.310257 25.6508 0.484084 24.9138 1.15345 24.588C1.82282 24.2622 23.5688 15.7794 23.5688 15.7794Z" fill="#FFBD3E"/></g><defs><clipPath id="a"><rect width="138" height="28" fill="white"/></clipPath></defs></svg>
