<svg xmlns="http://www.w3.org/2000/svg" role="img" viewBox="0 0 221 58"><title>Eudonet</title>
<path
fill="#242424" d="M28.942.46c-1.061 0-2.11.06-3.142.171 14.41 1.567 25.63 13.773 25.63 28.6 0 14.826-11.217 27.034-25.63 28.598q1.548.17 3.142.17c15.891 0 28.772-12.88 28.772-28.771S44.83.46 28.942.46"/>
<path
fill="#242424" d="M27.724 11.222q-.998 0-1.967.108c9.02.98 16.042 8.62 16.042 17.903s-7.021 16.923-16.042 17.904q.97.106 1.967.108c9.947 0 18.009-8.064 18.009-18.01 0-9.944-8.064-18.008-18.009-18.008z"/>
<path
fill="#242424" d="M27.084 20.155q-.502.002-.992.054c4.547.495 8.086 4.345 8.086 9.024s-3.54 8.529-8.086 9.023q.49.053.992.054a9.076 9.076 0 0 0 9.077-9.077 9.076 9.076 0 0 0-9.077-9.078M20.786 50.02q1.15-.002 2.27-.125c-10.413-1.132-18.517-9.95-18.517-20.662S12.643 9.701 23.055 8.572a21 21 0 0 0-2.269-.125C9.306 8.447 0 17.754 0 29.233S9.307 50.02 20.786 50.02"/>
<path
fill="#242424" d="M23.434 42.473q.733 0 1.445-.078c-6.632-.721-11.795-6.338-11.795-13.162s5.163-12.444 11.795-13.163a14 14 0 0 0-1.445-.078c-7.314 0-13.244 5.93-13.244 13.243S16.12 42.48 23.434 42.48z"/>
<g
fill="#242424">
<path
d="M72.886 29.629h14.95v-3.897h-14.95v-9.593H89.12v-3.897H68.347v32.122h21.2v-3.897h-16.66zM105.866 34.298c0 4.712-2.782 6.98-5.91 6.98-2.656 0-4.582-1.757-4.582-5.181V20.55h-4.327v15.803c0 5.438 2.955 8.525 8.182 8.525 3.382 0 5.654-2.141 6.853-4.54v4.029h4.112V20.55h-4.328zM129.468 24.321c-1.672-2.74-4.37-4.281-7.495-4.281-5.396 0-10.323 4.496-10.323 11.606v1.541c0 6.937 4.628 11.65 10.066 11.65 3.297 0 6.21-1.8 7.925-4.797v4.328h4.154V12.24h-4.327zm.084 8.993c0 5.57-3.082 7.967-6.768 7.967s-6.768-2.225-6.768-7.967V31.69c0-5.738 3.213-7.925 6.768-7.925s6.768 2.356 6.768 7.925zM146.428 20.036c-6.211 0-11.176 4.497-11.176 11.607v1.54c0 6.938 4.923 11.65 11.176 11.65s11.138-4.712 11.138-11.65v-1.54c0-7.11-4.928-11.607-11.138-11.607m6.726 13.279c0 5.569-3.04 7.967-6.726 7.967s-6.768-2.398-6.768-7.967v-1.626c0-5.569 3.082-7.925 6.768-7.925s6.726 2.356 6.726 7.925zM169.982 20.036c-3.382 0-5.653 2.14-6.852 4.538v-4.028h-4.113V44.36h4.328V30.612c0-4.67 2.782-6.853 5.911-6.853 2.656 0 4.585 1.757 4.585 5.18v15.42h4.324V28.556c0-5.438-2.956-8.525-8.183-8.525zM190.324 20.036c-6.038 0-10.834 4.581-10.834 11.691V33.4c0 6.468 4.67 11.434 11.222 11.434 4.97 0 9.167-2.572 10.108-8.267h-4.239c-.684 3.428-2.782 4.796-5.869 4.796-3.981 0-6.894-2.74-6.894-7.836v-.3h17.133v-1.583c0-7.11-3.939-11.607-10.623-11.607zm-6.337 9.681c.641-4.154 3.297-6.037 6.337-6.037 3.724 0 5.822 1.925 6.211 6.037zM207.973 13.956h-.127l-4.197 2.014v4.581h-2.782v3.555h2.782v14.136c0 4.28 2.441 6.126 6.169 6.126h2.141V40.64h-1.499c-1.714 0-2.483-.558-2.483-2.483V24.11h3.986v-3.555h-3.986V13.96zM213.496 41.311h.988v3.015h.697V41.31h.992v-.633h-2.677zM219.684 40.678v-.186l-.063.186h-.431l-.827 2.571-.815-2.571h-.507l-.038-.122v.122h-.46v3.648h.671V41.89l.79 2.436h.675l.794-2.483v2.483h.697v-3.648z"/>
</g>
</svg>
