<svg role="img" width="138" height="51" viewBox="0 0 138 51" fill="none" xmlns="http://www.w3.org/2000/svg"><title>GEODIS</title>
<path d="M27.2 1.39993C27.1 1.59993 27.1 1.79993 27 1.89993C26.6 2.49993 26.3 3.19993 25.9 3.79993C25.8 4.09993 25.5 4.39993 25.3 4.79993C25.2 5.09993 24.4 6.49993 24.2 7.09993C24 7.89993 23.3 8.49993 22.9 9.19993C22.5 9.69993 22.1 10.0999 21.5 10.3999C21.2 10.6999 20.8 11.0999 20.4 11.3999C20.3 11.4999 20.5 11.5999 20.5 11.6999C21 11.8999 21.3 12.3999 21.7 12.7999C22 13.0999 22.3 13.3999 22.6 13.6999C22.9 14.0999 23.4 14.4999 23.7 14.9999C24.1 15.3999 24.3 15.8999 24.6 16.3999C24.9 16.7999 25 17.1999 25.3 17.4999C25.7 17.5999 26 17.0999 26.2 16.8999C26.7 16.4999 27.2 16.0999 27.7 15.5999C29.7 13.6999 31.5 11.9999 33.5 10.1999C33.8 9.89993 34 9.69993 34.4 9.49993C34.5 9.59993 34.6 9.69993 34.6 9.89993C34.5 10.2999 34.5 10.7999 34.4 11.1999C34 12.4999 33.5 13.5999 33 14.8999C32.9 15.1999 32.7 15.4999 32.6 15.7999C32.4 15.9999 32.3 16.1999 32.2 16.3999C32 16.5999 31.9 16.9999 31.8 17.1999C31.5 17.2999 31.5 17.5999 31.3 17.8999C31.2 18.1999 30.8 18.5999 30.7 18.7999C30.3 19.1999 29.3 19.9999 29.3 19.9999C28.6 20.4999 27.7 20.6999 27 21.0999C26.7 21.2999 26.4 21.2999 26.1 21.3999C25.4 21.3999 24.8 21.4999 24.1 21.4999C23.9 21.4999 23.5 21.4999 23.4 21.6999C23.2 22.3999 23 23.8999 23 23.8999C23 24.1999 22.9 24.3999 23 24.7999C22.9 25.3999 22.9 25.9999 22.8 26.6999C22.8 26.7999 22.6 29.4999 22.4 30.5999C22.3 30.7999 22.4 30.9999 22.3 31.1999C22.3 31.9999 22.2 32.7999 22.2 33.4999C22.1 34.0999 22 34.7999 21.9 35.2999C21.6 35.5999 21.5 36.6999 21.5 36.9999C21.4 37.1999 21.3 37.3999 21.1 37.3999C21 37.3999 21 37.3999 20.8 37.4999C20.7 37.3999 20.6 37.2999 20.6 37.1999C20.4 36.2999 20.1 35.4999 19.8 34.6999C19.7 34.3999 19.7 34.0999 19.5 33.7999C19.1 33.0999 19.1 32.1999 19 31.4999C18.9 30.2999 18.6 28.7999 18.7 27.5999C18.7 26.7999 18.7 26.0999 18.7 25.2999C18.7 24.4999 18.9 23.5999 19 22.7999C19 21.8999 19.4 20.8999 19.2 19.9999C19.2 19.5999 19.1 19.6999 19 19.4999C18.9 19.1999 18.6 19.0999 18.5 18.7999C17.2 17.8999 16.2 16.7999 15.1 15.6999C14.9 15.5999 14.8 15.5999 14.7 15.4999C14.2 15.7999 13.7 16.1999 13.1 16.4999C11.9 17.1999 10.8 17.9999 9.70002 18.7999C9.10002 19.1999 8.50002 19.7999 7.70002 19.8999C7.40002 20.0999 7.20002 20.1999 6.90002 20.2999C5.60002 20.1999 3.20002 20.2999 3.20002 20.2999C3.00002 20.2999 2.70002 20.3999 2.50002 20.2999C2.30002 20.1999 2.20002 20.0999 2.10002 19.9999C2.20002 19.7999 2.20002 19.5999 2.40002 19.4999C3.20002 19.2999 4.10002 18.9999 4.80002 18.5999C5.40002 18.3999 5.90002 17.9999 6.40002 17.5999C6.50002 17.3999 6.70002 17.2999 6.90002 17.1999C7.10002 16.7999 7.60002 16.4999 7.90002 16.0999C8.30002 15.3999 8.90002 14.9999 9.30002 14.3999C10 13.6999 10.6 12.8999 11.4 12.2999C12 11.9999 12.6 11.9999 13.2 11.7999C14.2 11.3999 15.3 11.1999 16.3 10.6999C16.8 10.2999 17.2 9.69993 17.6 9.29993C18.7 8.09993 20.2 7.29993 21.5 6.09993C22.1 5.49993 22.7 4.59993 23.3 3.99993C23.8 3.29993 24.6 2.29993 25.3 1.39993C25 1.39993 24.7 1.39993 24.4 1.39993C11.2 1.19993 0.400024 12.0999 0.400024 25.4999C0.400024 32.8999 3.70002 39.4999 8.90002 43.8999C9.00002 43.6999 9.20002 43.5999 9.20002 43.4999C8.50002 41.2999 6.90002 39.5999 6.80002 37.3999C6.70002 35.6999 6.50002 34.1999 6.60002 32.4999C6.80002 30.9999 6.90002 29.3999 7.50002 27.9999C8.70002 25.8999 10.2 23.7999 11.7 21.9999L11.8 21.8999C11.8 21.8999 12.4 21.9999 12.6 22.1999C12.7 22.2999 12.6 22.4999 12.7 22.5999C12.7 22.5999 12.6 23.0999 12.6 23.2999C12.6 23.5999 12.4 23.9999 12.3 24.2999C12.1 24.4999 11.7 25.3999 11.6 25.5999L11.5 25.7999C11.1 27.0999 10.4 28.2999 10.1 29.5999C9.90003 30.3999 10 31.0999 10 31.8999C10 32.3999 10 33.0999 10 33.4999C10.1 34.2999 10.2 34.9999 10.5 35.7999C10.7 36.1999 10.8 36.4999 11 36.9999C11.2 37.7999 11.5 38.5999 11.8 39.2999C11.9 39.3999 11.9 40.0999 12.4 40.1999C12.8 40.1999 13.2 40.2999 13.6 40.1999C13.9 40.2999 14.4 40.3999 14.7 40.2999C16.5 40.4999 18.3 40.4999 20.2 40.3999C21.1 40.2999 21.9 40.0999 22.8 39.9999C23.5 40.0999 24.2 39.9999 24.9 39.9999C25.3 39.8999 25.8 39.8999 26.2 39.8999C26.7 39.9999 27.4 39.6999 27.9 39.8999C28.8 40.0999 29.6 39.9999 30.5 40.0999C30.6 40.0999 30.6 40.1999 30.6 40.2999C30.3 40.3999 30.6 40.6999 30.4 40.8999C29.2 41.4999 27.9 41.9999 26.7 42.4999L26.6 42.5999C25.7 43.1999 24.6 43.1999 23.8 43.7999C23.4 43.9999 23.2 44.0999 23 43.9999C22.6 44.0999 22.1 44.1999 21.7 44.3999C19.8 44.7999 17.8 45.1999 15.9 45.4999C15.8 45.4999 15.4 45.7999 15.3 45.9999C15.2 46.0999 15.2 46.1999 15.1 46.2999C14.9 46.6999 14.9 47.1999 14.9 47.6999C17.9 48.9999 21.1 49.6999 24.6 49.6999C30.8 49.6999 36.5 47.3999 40.8 43.4999C40.8 42.5999 40.4 41.2999 40.3 40.6999C39.4 39.2999 38.9 37.8999 38 36.4999C37.8 35.7999 37.4 35.1999 37.2 34.4999C37 34.2999 36.9 33.7999 36.7 33.5999C36 33.4999 35.3 33.7999 34.6 33.7999C34.4 33.9999 34 34.0999 33.7 34.1999C33.4 34.0999 33 34.2999 32.7 34.1999C32.1 34.2999 30.4 34.4999 30.2 34.4999C29.5 34.5999 28.8 34.6999 28.1 34.7999C27.8 34.7999 27.7 34.8999 27.3 34.8999C26.8 34.8999 26.6 34.7999 26.2 34.7999C25.7 34.9999 25.2 34.8999 24.7 34.9999C24.6 34.8999 24.4 34.7999 24.4 34.5999C24.4 34.4999 24.3 34.2999 24.4 34.1999C24.9 34.0999 25.2 33.7999 25.7 33.6999C25.8 33.5999 26.4 33.5999 26.4 33.4999C27.4 33.0999 28.6 32.8999 29.5 32.3999C29.8 32.3999 30.1 32.1999 30.4 32.0999C31.7 31.5999 32.9 30.9999 34.3 30.4999C36.1 30.0999 37.6 29.1999 39.4 28.5999C39.8 28.5999 40 28.3999 40.3 28.1999C40.7 27.7999 40.9 27.1999 41.2 26.6999C41.8 25.9999 42 25.0999 42.8 24.3999C43 24.0999 43.1 23.6999 43.4 23.3999C43.4 22.8999 43.2 22.3999 43 21.9999C42.6 21.3999 42.1 20.6999 41.8 19.9999C41 18.8999 40.7 17.5999 40.5 16.3999C40.2 15.8999 39.7 15.7999 39.3 15.2999H39.2C38.9 15.0999 38.7 14.8999 38.5 14.6999C38 14.3999 37.8 13.8999 37.4 13.4999C37 13.1999 36.9 12.6999 36.8 12.2999C37.4 12.1999 38.1 12.2999 38.7 12.1999C38.9 12.2999 39.3 12.0999 39.5 12.2999C39.8 12.6999 40.1 13.0999 40.3 13.5999C42 16.0999 44.1 18.0999 45.9 20.4999C46.2 20.6999 46.1 21.1999 46.2 21.4999C46.3 22.0999 46.4 22.7999 46.5 23.3999C46.8 24.6999 46.2 25.7999 46.3 27.0999C46.3 27.0999 46 29.9999 45.8 31.2999C45.5 32.3999 45.6 33.4999 45.3 34.5999C45.2 35.2999 44.9 35.9999 44.8 36.6999C44.9 36.9999 44.5 37.1999 44.6 37.5999C44.7 37.6999 45.3 37.9999 45.7 38.0999C47.8 34.4999 49.1 30.2999 49.1 25.7999C48.9 12.9999 39.4 2.69993 27.2 1.39993ZM15.5 5.69993C15.8 5.49993 16.1 5.79993 16.4 5.89993C16.7 6.29993 16.8 6.79993 16.9 7.19993C17.2 7.59993 16.8 8.09993 16.8 8.49993C16.7 8.79993 16.4 9.09993 16.3 9.39993C16 9.59993 15.7 9.89993 15.3 9.69993C15.2 9.69993 14.9 9.59993 14.9 9.59993C14.6 9.39993 13.9 9.49993 13.9 8.89993C13.8 8.09993 13.4 7.39993 13.3 6.59993C13.7 5.79993 14.8 6.09993 15.5 5.69993ZM16.6 35.3999C16.2 35.8999 16.1 36.4999 15.8 37.0999C15.8 37.2999 15.6 37.1999 15.5 37.2999C15.4 37.4999 15.2 37.4999 15.1 37.4999C14.8 37.2999 14.5 37.5999 14.3 37.3999C14 36.9999 13.7 36.5999 13.6 36.0999C13.4 35.2999 13.7 34.5999 13.7 33.8999C13.8 33.4999 14 32.9999 14.3 32.5999C14.4 32.3999 14.4 32.1999 14.7 32.0999C14.8 31.9999 14.9 31.9999 15 31.9999C15.3 31.9999 15.7 31.7999 16 32.0999C16.1 32.2999 16.2 32.3999 16.3 32.5999C16.4 33.2999 16.7 33.9999 16.8 34.5999C16.8 34.7999 16.7 35.0999 16.6 35.3999ZM37.1 20.2999C37.6 20.5999 38.1 20.5999 38.5 20.7999C39 20.8999 39.5 21.3999 39.7 21.8999C39.8 22.2999 39.8 22.8999 39.9 23.2999C39.9 23.9999 40.5 25.1999 39.4 25.4999C38.8 25.4999 38.3 25.1999 37.8 24.9999C37.5 24.9999 37.3 24.6999 37.1 24.5999C36.3 24.1999 36.5 23.1999 36.1 22.5999C36.1 22.0999 36 21.5999 35.9 21.0999C35.9 20.8999 36 20.6999 36 20.4999C36.4 20.1999 36.8 20.1999 37.1 20.2999ZM77.8 26.5999H84V23.9999H77.8V20.9999H84.4V18.3999H75V32.2999H84.7V29.6999H77.8V26.5999ZM65.4 26.6999H68.2V29.5999C67.4 29.9999 66.4 30.1999 65.2 30.1999C62.6 30.1999 60.7 28.1999 60.7 25.3999C60.7 22.6999 62.6 20.6999 65.2 20.6999C66.5 20.6999 67.8 21.1999 68.6 21.9999L68.7 22.0999L70.7 19.9999L70.6 19.8999C69.3 18.6999 67.5 18.1999 65.1 18.1999C60.8 18.1999 57.8 21.1999 57.8 25.5999C57.8 29.8999 60.8 32.7999 65.1 32.7999C67.2 32.7999 69.1 32.2999 70.8 31.3999L70.9 31.2999V24.0999H65.3V26.6999H65.4ZM111.2 18.4999H105.7V32.3999H110.9C114.5 32.3999 118.3 29.9999 118.3 25.3999C118.3 20.6999 114.7 18.4999 111.2 18.4999ZM110.1 29.8999H108.5V21.0999H110.5C112.7 21.0999 115.4 21.8999 115.4 25.4999C115.4 29.4999 111.7 29.8999 110.1 29.8999ZM121.7 32.4999H124.5V18.4999H121.7V32.4999ZM133.6 24.0999C132.3 23.6999 131.2 23.2999 131.2 22.2999C131.2 21.1999 132.3 20.6999 133.2 20.6999C134.1 20.6999 135 21.0999 135.4 21.6999L135.5 21.8999L137.5 19.6999L137.4 19.5999C136.1 18.3999 134.5 18.1999 133.4 18.1999C130.8 18.1999 128.2 19.4999 128.2 22.4999C128.2 25.2999 130.4 26.0999 132.1 26.5999C133.4 26.9999 134.6 27.3999 134.6 28.5999C134.6 29.6999 133.5 30.2999 132.4 30.2999C131.4 30.2999 130.4 29.7999 129.9 28.9999L129.8 28.7999L127.7 30.7999L127.8 30.8999C129.1 32.4999 131 32.7999 132.4 32.7999C135.5 32.7999 137.5 30.9999 137.5 28.2999C137.6 25.3999 135.4 24.6999 133.6 24.0999ZM95 18.1999C94.9 18.1999 94.9 18.1999 94.8 18.1999C90.5 18.1999 87.5 21.1999 87.5 25.5999C87.5 29.8999 90.5 32.7999 94.8 32.7999C99.2 32.6999 102.2 29.7999 102.2 25.4999C102.2 21.0999 99.3 18.1999 95 18.1999ZM94.9 30.2999C92.3 30.2999 90.4 28.2999 90.4 25.4999C90.4 22.7999 92.3 20.7999 94.9 20.7999C97.5 20.7999 99.4 22.7999 99.4 25.4999C99.3 28.2999 97.5 30.2999 94.9 30.2999Z" fill="#3200E6"/>
</svg>
