<svg role="img" viewBox="0 0 139 32" xmlns="http://www.w3.org/2000/svg"><title>Optery</title><path fill-rule="evenodd" clip-rule="evenodd" d="M0 3.78418V13.9305C0 24.077 12.4878 27.9793 12.4878 27.9793C12.4878 27.9793 24.9756 24.077 24.9756 13.9305V3.78418L12.4878 0L0 3.78418ZM12.4878 21.0732C16.7983 21.0732 20.2927 17.5788 20.2927 13.2683C20.2927 8.95778 16.7983 5.46341 12.4878 5.46341C8.17729 5.46341 4.68293 8.95778 4.68293 13.2683C4.68293 17.5788 8.17729 21.0732 12.4878 21.0732Z"/><path d="M8.58496 13.2692L11.1866 15.6107L16.3898 10.9277" stroke="currentColor" fill="none" stroke-width="2"/><path d="M46.8667 3.01953C48.8044 3.01953 50.5444 3.4743 52.0866 4.38382C53.6486 5.29335 54.8745 6.56867 55.7643 8.20978C56.654 9.83111 57.0989 11.6699 57.0989 13.7263C57.0989 15.7826 56.654 17.6313 55.7643 19.2724C54.8745 20.8937 53.6486 22.1592 52.0866 23.0687C50.5444 23.9782 48.8044 24.433 46.8667 24.433C44.929 24.433 43.1693 23.9782 41.5875 23.0687C40.0255 22.1592 38.7996 20.8937 37.9098 19.2724C37.0201 17.6313 36.5752 15.7826 36.5752 13.7263C36.5752 11.6699 37.0201 9.83111 37.9098 8.20978C38.7996 6.56867 40.0255 5.29335 41.5875 4.38382C43.1693 3.4743 44.929 3.01953 46.8667 3.01953ZM46.8667 5.54051C45.4233 5.54051 44.1282 5.87664 42.9814 6.5489C41.8544 7.20139 40.9647 8.15046 40.3122 9.39612C39.6795 10.622 39.3631 12.0654 39.3631 13.7263C39.3631 15.3674 39.6795 16.8108 40.3122 18.0564C40.9647 19.3021 41.8544 20.261 42.9814 20.9333C44.1282 21.5858 45.4233 21.912 46.8667 21.912C48.2903 21.912 49.5656 21.5759 50.6927 20.9036C51.8395 20.2314 52.7292 19.2823 53.3619 18.0564C54.0144 16.8108 54.3407 15.3674 54.3407 13.7263C54.3407 12.0654 54.0144 10.622 53.3619 9.39612C52.7292 8.15046 51.8395 7.20139 50.6927 6.5489C49.5656 5.87664 48.2903 5.54051 46.8667 5.54051Z"/><path d="M70.0305 7.70558C71.4739 7.70558 72.7591 8.04171 73.8861 8.71397C75.0131 9.38623 75.893 10.3551 76.5257 11.6205C77.1782 12.8859 77.5044 14.3689 77.5044 16.0693C77.5044 17.7697 77.1782 19.2526 76.5257 20.5181C75.893 21.7637 75.0131 22.7227 73.8861 23.3949C72.7591 24.0672 71.4739 24.4033 70.0305 24.4033C68.4487 24.4033 67.1042 24.0079 65.9969 23.217C64.9094 22.4063 64.1581 21.3485 63.7429 20.0435V31.9069H61.044V7.91319H63.7429V12.0654C64.1581 10.7604 64.9094 9.71248 65.9969 8.92158C67.1042 8.11091 68.4487 7.70558 70.0305 7.70558ZM69.2594 10.1079C68.2114 10.1079 67.2624 10.3551 66.4121 10.8494C65.5619 11.3239 64.8996 12.016 64.425 12.9255C63.9505 13.835 63.7132 14.8829 63.7132 16.0693C63.7132 17.2556 63.9505 18.3036 64.425 19.2131C64.8996 20.1028 65.5619 20.7949 66.4121 21.2892C67.2624 21.7835 68.2114 22.0307 69.2594 22.0307C70.94 22.0307 72.2746 21.5067 73.2633 20.4588C74.2717 19.391 74.7759 17.9279 74.7759 16.0693C74.7759 14.2107 74.2717 12.7574 73.2633 11.7095C72.2746 10.6418 70.94 10.1079 69.2594 10.1079Z"/><path d="M89.0958 21.823V24.1957H87.079C85.4182 24.1957 84.1725 23.8003 83.3421 23.0094C82.5314 22.2185 82.1261 20.8937 82.1261 19.0351V10.2562H79.6941V7.91319H82.1261V3.84997H84.8547V7.91319H89.0662V10.2562H84.8547V19.0945C84.8547 20.1424 85.0425 20.8641 85.4182 21.2595C85.8136 21.6352 86.4859 21.823 87.4349 21.823H89.0958Z"/><path d="M107.663 15.1499C107.663 15.7233 107.624 16.2176 107.545 16.6328H94.5247C94.584 18.4914 95.108 19.8854 96.0966 20.8147C97.105 21.744 98.3309 22.2086 99.7743 22.2086C101.079 22.2086 102.167 21.8824 103.037 21.2299C103.926 20.5576 104.47 19.6679 104.668 18.5606H107.545C107.347 19.6876 106.902 20.696 106.21 21.5858C105.538 22.4755 104.658 23.1676 103.571 23.6619C102.483 24.1562 101.257 24.4033 99.8929 24.4033C98.3309 24.4033 96.9468 24.0672 95.7407 23.3949C94.5346 22.7227 93.5855 21.7637 92.8935 20.5181C92.2213 19.2526 91.8851 17.7697 91.8851 16.0693C91.8851 14.3689 92.2213 12.8859 92.8935 11.6205C93.5855 10.3551 94.5346 9.38623 95.7407 8.71397C96.9468 8.04171 98.3309 7.70558 99.8929 7.70558C101.475 7.70558 102.849 8.04171 104.015 8.71397C105.202 9.38623 106.101 10.2859 106.714 11.4129C107.347 12.5399 107.663 13.7856 107.663 15.1499ZM104.935 15.3278C104.994 14.1217 104.796 13.1133 104.342 12.3027C103.887 11.492 103.264 10.8889 102.473 10.4935C101.682 10.098 100.822 9.90031 99.8929 9.90031C98.41 9.90031 97.1643 10.365 96.1559 11.2943C95.1476 12.2038 94.6038 13.5483 94.5247 15.3278H104.935Z"/><path d="M114.189 11.2053C114.723 10.0783 115.504 9.20828 116.532 8.59534C117.56 7.96262 118.786 7.64626 120.21 7.64626V10.5825H119.379C117.857 10.5825 116.611 10.9779 115.642 11.7688C114.673 12.5399 114.189 13.8251 114.189 15.6244V24.1957H111.49V7.91319H114.189V11.2053Z"/><path d="M124.296 7.91319L129.576 20.7257L134.469 7.91319H137.465L127.796 31.9069H124.741L128.122 23.9288L121.271 7.91319H124.296Z"/></svg>
