<svg role="img" viewBox="0 0 198 57" xmlns="http://www.w3.org/2000/svg"><title>WoodWing</title><g clip-path="url(#a)"><path d="M91.2123 52.8912C92.4434 52.8912 93.5953 52.7609 94.6681 52.4956C95.7409 52.2327 96.6811 51.8254 97.4909 51.2646C98.3008 50.706 98.9407 49.9823 99.4085 49.091C99.8762 48.202 100.109 47.1409 100.109 45.9098C100.109 44.8137 99.9205 43.8829 99.5435 43.1196C99.1665 42.3563 98.6359 41.7117 97.9517 41.188C97.2675 40.6621 96.4297 40.2176 95.4361 39.8523C94.4447 39.4869 93.3323 39.1565 92.0989 38.8609C91.0936 38.6096 90.2163 38.3769 89.4646 38.1604C88.7106 37.944 88.0846 37.6927 87.582 37.4064C87.0793 37.1202 86.7093 36.7898 86.4696 36.4151C86.2299 36.0381 86.1112 35.554 86.1112 34.9606C86.1112 33.9111 86.4929 33.0896 87.2585 32.4962C88.0241 31.9028 89.2156 31.6049 90.8353 31.6049C91.566 31.6049 92.2781 31.6863 92.9739 31.8469C93.6698 32.0075 94.3097 32.2123 94.8915 32.4636C95.4733 32.7126 95.9806 32.9826 96.4135 33.2688C96.8486 33.555 97.1791 33.8226 97.4048 34.0717L99.1502 30.9254C98.1006 30.1481 96.8789 29.4988 95.4873 28.9729C94.0956 28.4493 92.5783 28.1863 90.9354 28.1863C89.681 28.1863 88.5175 28.3446 87.4447 28.6657C86.3719 28.9845 85.4433 29.4593 84.6544 30.0853C83.8678 30.7136 83.2465 31.4885 82.7881 32.4124C82.3319 33.3363 82.1039 34.3928 82.1039 35.5773C82.1039 36.5338 82.2575 37.3506 82.567 38.0231C82.8742 38.698 83.3256 39.2844 83.919 39.7871C84.5125 40.2898 85.2595 40.7156 86.1601 41.0694C87.0607 41.4231 88.1172 41.7582 89.325 42.077C90.3745 42.3516 91.31 42.6146 92.1315 42.8659C92.953 43.1149 93.6488 43.3942 94.219 43.7037C94.7891 44.0109 95.2289 44.3716 95.5361 44.7811C95.8433 45.1907 95.9992 45.705 95.9992 46.3217C95.9992 47.348 95.5896 48.1229 94.7682 48.6489C93.9467 49.1725 92.7831 49.4354 91.2775 49.4354C90.342 49.4354 89.4413 49.326 88.5733 49.1096C87.7076 48.8932 86.9024 48.6302 86.1601 48.3231C85.42 48.0159 84.7684 47.6784 84.2099 47.3131C83.6514 46.9477 83.2232 46.6173 82.9277 46.3217L81.1823 49.6076C82.574 50.6804 84.1308 51.4949 85.8529 52.0558C87.575 52.6143 89.3599 52.8936 91.21 52.8936M108.526 52.9285C109.485 52.9285 110.386 52.7842 111.23 52.5003C112.075 52.2164 112.736 51.9604 113.215 51.73L112.429 48.7536C112.201 48.8676 111.847 49.0165 111.368 49.1981C110.888 49.3796 110.388 49.4727 109.862 49.4727C109.336 49.4727 108.899 49.3284 108.545 49.0445C108.191 48.7606 107.991 48.2975 107.947 47.6598V37.6671H111.849V34.7582H107.947V28.8705H104.181V34.7582H101.819V37.6671H104.181V48.8583C104.181 49.589 104.295 50.2104 104.524 50.7247C104.752 51.2366 105.066 51.6532 105.464 51.9743C105.864 52.2932 106.325 52.5328 106.851 52.6934C107.377 52.8517 107.935 52.9331 108.529 52.9331M121.328 53.0006C122.857 53.0006 124.26 52.6655 125.538 51.993C126.815 51.3181 127.855 50.3337 128.651 49.0328L128.719 50.8108C128.742 51.4042 128.993 51.8906 129.473 52.2676C129.952 52.6446 130.534 52.8307 131.218 52.8307C131.446 52.8307 131.686 52.8191 131.937 52.7981C132.189 52.7749 132.507 52.7283 132.896 52.6608V49.4447C132.507 49.4215 132.24 49.3191 132.091 49.1376C131.944 48.9537 131.867 48.6465 131.867 48.2137V34.7628H128.102V45.9191C127.578 47.1734 126.836 48.1322 125.877 48.7931C124.919 49.454 123.904 49.7845 122.831 49.7845C120.551 49.7845 119.408 48.1741 119.408 44.958V34.7582H115.643V45.7097C115.643 48.1276 116.122 49.9474 117.081 51.1691C118.04 52.3886 119.454 52.9983 121.325 52.9983M143.948 52.9983C145.339 52.9983 146.608 52.6795 147.745 52.0418C148.886 51.4019 149.789 50.5245 150.45 49.4075L150.517 50.7433C150.564 51.3576 150.824 51.8603 151.304 52.2489C151.783 52.6352 152.4 52.8284 153.151 52.8284C153.31 52.8284 153.51 52.8168 153.75 52.7958C153.989 52.7725 154.303 52.726 154.69 52.6585V49.4424C154.301 49.4191 154.033 49.3167 153.884 49.1352C153.738 48.9514 153.661 48.6442 153.661 48.2114V27.6767H149.896V38.1488C149.279 37.076 148.425 36.1917 147.329 35.4959C146.233 34.8 144.967 34.451 143.531 34.451C142.367 34.451 141.302 34.6953 140.331 35.1864C139.363 35.6751 138.518 36.3429 137.799 37.1877C137.08 38.0324 136.522 39.0075 136.121 40.1129C135.723 41.2206 135.523 42.4028 135.523 43.6571C135.523 44.9115 135.733 46.1728 136.156 47.3014C136.58 48.4301 137.166 49.4191 137.918 50.2616C138.672 51.1063 139.561 51.7719 140.587 52.2629C141.613 52.7539 142.733 52.9983 143.941 52.9983M144.864 49.7822C144.111 49.7822 143.41 49.6239 142.761 49.3028C142.111 48.984 141.534 48.5488 141.032 48.0019C140.529 47.455 140.136 46.8151 139.852 46.0843C139.566 45.3559 139.424 44.5787 139.424 43.7595C139.424 42.9823 139.556 42.2306 139.817 41.4999C140.08 40.7692 140.441 40.1199 140.894 39.5497C141.351 38.9796 141.893 38.5211 142.521 38.1814C143.149 37.8393 143.838 37.6671 144.592 37.6671C145.139 37.6671 145.681 37.7578 146.219 37.9417C146.754 38.1255 147.264 38.3862 147.741 38.7283C148.22 39.068 148.648 39.4823 149.023 39.9593C149.4 40.4364 149.691 40.9646 149.896 41.5325V46.2216C149.758 46.7243 149.523 47.1897 149.195 47.6226C148.865 48.0578 148.472 48.4348 148.015 48.7536C147.559 49.0724 147.057 49.3237 146.51 49.5076C145.963 49.6914 145.414 49.7822 144.867 49.7822M162.218 27.6743H158.453V31.8143H162.218V27.6743ZM162.218 34.7582H158.453V52.6562H162.218V34.7582ZM174.778 52.9983C176.169 52.9983 177.43 52.7493 178.559 52.2466C179.688 51.7439 180.658 51.0714 181.468 50.2267C182.278 49.3819 182.899 48.3952 183.332 47.2665C183.767 46.1355 183.981 44.9557 183.981 43.7223C183.981 42.4889 183.765 41.3091 183.332 40.1804C182.899 39.0517 182.278 38.0627 181.468 37.2203C180.658 36.3755 179.688 35.703 178.559 35.2003C177.43 34.6977 176.169 34.4463 174.778 34.4463C173.386 34.4463 172.125 34.6953 170.996 35.2003C169.867 35.703 168.897 36.3755 168.087 37.2203C167.277 38.065 166.656 39.0517 166.221 40.1804C165.788 41.3091 165.571 42.4912 165.571 43.7223C165.571 44.9534 165.788 46.1355 166.221 47.2665C166.656 48.3952 167.27 49.3819 168.068 50.2267C168.867 51.0714 169.83 51.7439 170.961 52.2466C172.09 52.7493 173.363 52.9983 174.778 52.9983ZM174.778 49.7822C174.024 49.7822 173.323 49.6286 172.674 49.3191C172.025 49.0119 171.459 48.5907 170.98 48.0531C170.5 47.5155 170.123 46.8849 169.851 46.1542C169.576 45.4234 169.441 44.6252 169.441 43.7595C169.441 42.8938 169.586 42.1212 169.87 41.3812C170.156 40.6412 170.537 39.9942 171.017 39.4473C171.496 38.9005 172.062 38.4676 172.711 38.1488C173.36 37.83 174.051 37.6694 174.782 37.6694C175.513 37.6694 176.237 37.823 176.886 38.1302C177.535 38.4397 178.101 38.8679 178.58 39.4148C179.059 39.9616 179.436 40.6063 179.709 41.3486C179.983 42.0886 180.118 42.8845 180.118 43.727C180.118 44.5694 179.981 45.3932 179.709 46.1239C179.434 46.8523 179.059 47.4923 178.58 48.0415C178.101 48.5883 177.535 49.0165 176.886 49.3237C176.237 49.6332 175.534 49.7868 174.782 49.7868"/><path d="M88.1707 19.7435L92.7366 6.69751L97.2791 19.7435H98.8453L104.416 3.81186H102.604L98.0378 17.1696L93.472 3.83281L92.0617 3.81186L87.4307 17.1254L82.9114 3.81186H81.0311L86.6255 19.7435H88.1707ZM110.302 19.8994C111.361 19.8994 112.294 19.662 113.099 19.1826C113.904 18.7056 114.528 18.026 114.968 17.1464C115.408 16.2667 115.626 15.2358 115.626 14.0606C115.626 12.8854 115.408 11.8521 114.968 10.9701C114.528 10.0905 113.904 9.41096 113.099 8.93389C112.294 8.45683 111.361 8.21714 110.302 8.21714C109.243 8.21714 108.31 8.45683 107.505 8.93389C106.699 9.41096 106.076 10.0905 105.636 10.9701C105.196 11.8498 104.975 12.8807 104.975 14.0606C104.975 15.2404 105.194 16.269 105.636 17.1464C106.076 18.026 106.697 18.7056 107.505 19.1826C108.31 19.6597 109.243 19.8994 110.302 19.8994ZM110.302 18.4007C109.182 18.4007 108.321 18.0284 107.719 17.293C107.114 16.5553 106.811 15.4755 106.811 14.0606C106.811 12.6457 107.116 11.6241 107.728 10.8701C108.34 10.1161 109.196 9.73908 110.302 9.73908C111.407 9.73908 112.24 10.1161 112.852 10.8701C113.464 11.6241 113.769 12.6876 113.769 14.0606C113.769 15.4336 113.471 16.5553 112.873 17.293C112.278 18.0307 111.419 18.4007 110.299 18.4007M123.099 19.8994C124.158 19.8994 125.091 19.662 125.896 19.1826C126.701 18.7056 127.325 18.026 127.765 17.1464C128.205 16.2667 128.423 15.2358 128.423 14.0606C128.423 12.8854 128.205 11.8521 127.765 10.9701C127.325 10.0905 126.701 9.41096 125.896 8.93389C125.091 8.45683 124.158 8.21714 123.099 8.21714C122.04 8.21714 121.107 8.45683 120.302 8.93389C119.496 9.41096 118.873 10.0905 118.433 10.9701C117.993 11.8498 117.772 12.8807 117.772 14.0606C117.772 15.2404 117.991 16.269 118.433 17.1464C118.873 18.026 119.494 18.7056 120.302 19.1826C121.107 19.6597 122.04 19.8994 123.099 19.8994ZM123.099 18.4007C121.979 18.4007 121.118 18.0284 120.516 17.293C119.911 16.5553 119.608 15.4755 119.608 14.0606C119.608 12.6457 119.913 11.6241 120.525 10.8701C121.137 10.1161 121.996 9.73908 123.099 9.73908C124.202 9.73908 125.04 10.1161 125.649 10.8701C126.261 11.6241 126.566 12.6876 126.566 14.0606C126.566 15.4336 126.268 16.5553 125.67 17.293C125.075 18.0307 124.216 18.4007 123.096 18.4007M135.561 19.8994C136.44 19.8994 137.213 19.7109 137.878 19.3292C138.542 18.9499 139.037 18.4077 139.365 17.7072V19.7435H141.155V3.27429H139.342V10.3907C139.014 9.70418 138.523 9.17126 137.864 8.78961C137.208 8.41029 136.44 8.21946 135.561 8.21946C134.576 8.21946 133.704 8.45916 132.943 8.93622C132.182 9.41329 131.595 10.0882 131.186 10.9632C130.776 11.8335 130.569 12.8551 130.569 14.0187C130.569 15.1823 130.778 16.2085 131.195 17.0928C131.614 17.9818 132.198 18.673 132.952 19.164C133.706 19.6574 134.574 19.9017 135.558 19.9017M135.917 18.403C134.814 18.403 133.953 18.019 133.334 17.2511C132.715 16.4831 132.405 15.4033 132.405 14.0187C132.405 12.634 132.715 11.6078 133.334 10.8631C133.953 10.1184 134.814 9.74374 135.917 9.74374C137.02 9.74374 137.871 10.1207 138.467 10.8747C139.065 11.6287 139.363 12.6922 139.363 14.0652C139.363 15.4382 139.065 16.5227 138.467 17.2767C137.871 18.0307 137.02 18.4077 135.917 18.4077M150.796 19.7481L155.362 6.70217L159.905 19.7481H161.471L167.042 3.81652H165.229L160.663 17.1743L156.098 3.83746L154.687 3.81652L150.056 17.1301L145.537 3.81652H143.657L149.251 19.7481H150.796ZM171.585 3.72576H169.369V5.78528H171.585V3.72576ZM171.361 8.49174H169.548V19.7481H171.361V8.49174ZM176.688 19.7481V13.3043C176.688 12.2152 177.002 11.3471 177.628 10.7072C178.254 10.0672 179.09 9.74607 180.135 9.74607C181.031 9.74607 181.687 9.98809 182.103 10.4745C182.52 10.9585 182.729 11.7241 182.729 12.7667V19.7481H184.542V12.6759C184.542 9.70651 183.192 8.22179 180.493 8.22179C179.613 8.22179 178.831 8.4196 178.143 8.81521C177.456 9.21082 176.942 9.77399 176.6 10.507L176.42 8.49174H174.698C174.817 9.4319 174.878 10.4838 174.878 11.6473V19.7481H176.69H176.688ZM192.911 24.7375C194.581 24.7375 195.845 24.3093 196.704 23.4506C197.563 22.5919 197.991 21.3282 197.991 19.6574V8.48941H196.178V10.4372C195.836 9.73676 195.331 9.19221 194.668 8.8059C194.002 8.41727 193.225 8.22179 192.329 8.22179C191.344 8.22179 190.467 8.4545 189.699 8.9176C188.931 9.37838 188.338 10.0346 187.919 10.8864C187.502 11.7358 187.293 12.7132 187.293 13.8162C187.293 14.9193 187.502 15.8967 187.919 16.7484C188.338 17.5978 188.929 18.2541 189.699 18.7172C190.467 19.1803 191.342 19.4107 192.329 19.4107C193.239 19.4107 194.028 19.2129 194.689 18.8173C195.354 18.4216 195.857 17.8655 196.199 17.1487V19.8109C196.199 20.9443 195.922 21.8006 195.37 22.3731C194.819 22.9479 194 23.2342 192.908 23.2342C192.147 23.2342 191.451 23.1457 190.816 22.9665C190.181 22.7897 189.506 22.4965 188.789 22.0939L188.475 23.5716C189.713 24.3465 191.191 24.7352 192.906 24.7352M192.683 17.8887C191.579 17.8887 190.709 17.528 190.076 16.8043C189.441 16.0805 189.124 15.0845 189.124 13.8162C189.124 12.5479 189.441 11.5543 190.076 10.8305C190.709 10.1068 191.579 9.74374 192.683 9.74374C193.786 9.74374 194.626 10.1068 195.245 10.8305C195.864 11.5543 196.173 12.5503 196.173 13.8162C196.173 15.0822 195.864 16.0805 195.245 16.8043C194.626 17.528 193.772 17.8887 192.683 17.8887Z"/><path fill-rule="evenodd" clip-rule="evenodd" d="M54.2503 50.9738C54.1595 51.1414 53.8523 51.2275 53.6219 51.1577L48.2672 49.4914V7.60757L53.5917 6.04839C53.8523 5.97159 54.1595 6.04839 54.2991 6.43236L54.2503 50.9738ZM4.32382 51.153C4.06551 51.2321 3.76066 51.1507 3.62103 50.7737L3.67223 6.21827C3.75833 6.04839 4.06551 5.96926 4.37269 6.0577C4.38666 6.06002 6.24371 6.55338 9.49007 7.49587L9.65297 7.54241V49.5961L4.32382 51.153ZM57.5059 4.31234C56.6589 2.62749 54.6831 1.81765 52.7912 2.39012L48.6116 3.65609C48.5744 2.42969 47.9437 1.2987 46.8872 0.621498C45.7562 -0.0999153 44.3506 -0.197655 43.1242 0.358531L34.1019 4.51248C33.1524 4.95929 32.303 5.5783 31.5258 6.29506C32.175 7.27944 32.7568 8.32433 33.2129 9.46928C33.8878 8.68271 34.6651 8.03809 35.5587 7.61688L44.5624 3.4769C44.7811 3.37218 44.979 3.47457 45.0301 3.50948C45.1837 3.60489 45.1837 3.72357 45.1837 3.76314V52.8635C45.1837 52.9449 45.1186 53.0403 45.0162 53.1055C44.8696 53.2009 44.6904 53.2009 44.4902 53.1031L35.575 49.0004C32.5544 47.5762 30.6787 43.8877 30.6787 39.373V17.2396C30.6787 14.3702 30.0387 11.7429 28.8984 9.56469C28.7146 9.2226 28.5028 8.90844 28.3003 8.5873C28.1654 8.37553 28.0444 8.15445 27.9001 7.95431C27.6767 7.64946 27.4253 7.37718 27.1787 7.09793C27.0227 6.92106 26.8808 6.72791 26.7132 6.56269C26.4177 6.26714 26.0896 6.01115 25.7638 5.75284C25.6195 5.63881 25.4961 5.50849 25.3472 5.4061C24.8608 5.05935 24.3512 4.7545 23.809 4.50084C20.8186 3.09292 14.7308 0.332933 14.6447 0.295698C13.3694 -0.199982 12.0197 -0.0673354 10.9422 0.670368C9.96248 1.33593 9.37604 2.42503 9.31554 3.60256C6.65096 2.80901 5.12669 2.3878 5.12203 2.3878C3.26498 1.82463 1.24502 2.65542 0.416558 4.30303C0.14661 4.84293 0 5.44799 0 6.0577V50.5526C0 51.167 0.144283 51.7557 0.414231 52.291C1.07048 53.6012 2.46909 54.3924 3.93985 54.3924C4.33313 54.3924 4.7334 54.3342 5.12436 54.2178L9.30623 52.9519C9.33881 54.1434 9.94387 55.2557 10.9538 55.9353C12.0453 56.666 13.4392 56.801 14.768 56.2587L23.8113 52.1002C24.7631 51.651 25.6148 51.032 26.3944 50.3129C25.7451 49.3262 25.161 48.2836 24.7072 47.1387C24.0324 47.9276 23.2528 48.5676 22.3568 48.9911L13.3997 53.1148C13.132 53.2195 12.9552 53.145 12.8737 53.0915C12.8109 53.0473 12.7341 52.9728 12.7341 52.8565V3.79106C12.7341 3.63514 12.8156 3.54438 12.8807 3.5025C12.9552 3.44665 13.0529 3.42803 13.146 3.42803C13.2042 3.42803 13.2624 3.43501 13.3112 3.4513C13.3112 3.4513 19.3641 6.19732 22.3429 7.60524C25.3658 9.03178 27.2415 12.7203 27.2415 17.2373V39.3707C27.2415 42.2377 27.8815 44.8697 29.0264 47.0456C29.2126 47.3993 29.4267 47.7228 29.6361 48.0509C29.7641 48.2464 29.8781 48.4535 30.0108 48.6397C30.2598 48.9841 30.5437 49.289 30.8206 49.5985C30.9486 49.7404 31.0627 49.8963 31.1976 50.0336C31.5234 50.3571 31.8795 50.6387 32.2332 50.918C32.3496 51.0041 32.4496 51.1134 32.5706 51.1972C33.0431 51.5323 33.5457 51.8232 34.0693 52.0722C34.0856 52.0815 34.0949 52.0908 34.1066 52.0978C34.1112 52.1001 34.1135 52.1025 34.1205 52.1048L43.0358 56.2029C43.5943 56.4682 44.1877 56.5962 44.7765 56.5962C45.5026 56.5962 46.224 56.3937 46.8546 55.9958C47.9577 55.3023 48.6163 54.1364 48.6209 52.8728L52.7912 54.2155C53.1798 54.3319 53.5824 54.3901 53.9733 54.3901C55.4464 54.3901 56.845 53.5988 57.5059 52.2886C57.7782 51.7418 57.9155 51.1577 57.9155 50.5503V6.0577C57.9155 5.45729 57.7759 4.85456 57.5036 4.31467" fill="#F7A516"/></g><defs><clipPath id="a"><rect width="198" height="56.6007" fill="white"/></clipPath></defs></svg>
