<svg xmlns="http://www.w3.org/2000/svg" version="1.0" width="380.000000pt" height="380.000000pt" viewBox="0 0 380.000000 380.000000" preserveAspectRatio="xMidYMid meet">
<metadata fill="#ffffff">
Created by potrace 1.16, written by Peter Selinger 2001-2019
</metadata>
<g transform="translate(0.000000,380.000000) scale(0.100000,-0.100000)" fill="#ffffff" stroke="none">
<path d="M1252 2813 c-18 -17 -275 -671 -302 -773 -20 -73 -15 -199 10 -275 47 -142 65 -160 500 -488 217 -163 405 -300 418 -303 12 -4 32 -4 45 0 12 3 200 140 417 303 435 328 453 346 500 488 25 76 30 202 10 275 -28 103 -283 756 -302 773 -24 21 -67 22 -93 3 -13 -9 -49 -105 -110 -293 l-91 -278 -354 0 -354 0 -91 278 c-61 188 -97 284 -110 293 -26 19 -69 18 -93 -3z" fill="#ffffff"/>
</g>
</svg>