<svg xmlns="http://www.w3.org/2000/svg" version="1.0" width="512.000000pt" height="512.000000pt" viewBox="0 0 512.000000 512.000000" preserveAspectRatio="xMidYMid meet">

<g transform="translate(0.000000,512.000000) scale(0.100000,-0.100000)" fill="#ffffff" stroke="none">
<path d="M790 5105 c-195 -36 -349 -116 -497 -258 -111 -107 -194 -236 -242 -374 -52 -155 -51 -105 -51 -1913 0 -1808 -1 -1758 51 -1913 93 -271 325 -503 596 -596 155 -52 105 -51 1913 -51 1808 0 1758 -1 1913 51 271 93 503 325 596 596 52 155 51 105 51 1913 0 1808 1 1758 -51 1913 -93 271 -325 503 -596 596 -155 52 -103 51 -1922 50 -1371 -1 -1700 -3 -1761 -14z m2635 -1295 c92 -29 181 -79 249 -140 l55 -51 83 21 c97 25 207 68 296 115 34 18 62 31 62 28 0 -14 -48 -116 -76 -160 -45 -72 -99 -129 -168 -180 -56 -41 -57 -43 -25 -37 90 16 202 45 277 73 45 16 79 24 75 18 -43 -74 -168 -211 -257 -282 l-75 -60 0 -100 c-3 -342 -106 -716 -278 -1004 -340 -572 -838 -897 -1486 -972 -167 -19 -460 -7 -617 26 -219 46 -456 136 -623 237 l-58 36 109 -6 c292 -13 573 66 832 236 l85 56 -45 8 c-119 22 -160 32 -217 58 -151 69 -273 187 -348 340 -44 88 -44 87 32 79 69 -7 191 5 206 20 4 4 -10 11 -32 15 -22 3 -82 27 -133 54 -152 77 -278 216 -343 379 -23 57 -54 227 -43 238 3 3 27 -4 54 -15 56 -25 196 -60 236 -60 25 0 19 8 -61 88 -146 146 -196 272 -195 492 1 108 5 136 28 205 14 44 34 95 44 113 l18 33 82 -90 c332 -362 777 -580 1298 -636 l61 -7 -5 124 c-4 103 -1 137 16 205 65 258 271 460 527 517 96 22 266 15 360 -14z" fill="#ffffff"/>
</g>
</svg>