<?xml version="1.0" encoding="UTF-8" standalone="no"?>
<svg
   xmlns:dc="http://purl.org/dc/elements/1.1/"
   xmlns:cc="http://creativecommons.org/ns#"
   xmlns:rdf="http://www.w3.org/1999/02/22-rdf-syntax-ns#"
   xmlns:svg="http://www.w3.org/2000/svg"
   xmlns="http://www.w3.org/2000/svg"
   version="1.1"
   viewBox="0 0 35 35"
   id="Layer_2"
   data-name="Layer 2">
  <metadata
     id="metadata19">
    <rdf:RDF>
      <cc:Work
         rdf:about="">
        <dc:format>image/svg+xml</dc:format>
        <dc:type
           rdf:resource="http://purl.org/dc/dcmitype/StillImage" />
        <dc:title></dc:title>
      </cc:Work>
    </rdf:RDF>
  </metadata>
  <defs
     id="defs17" />
  <path
     id="path10"
     d="M 12.72,26.43 H 9.18 c -4.9319062,0 -8.92999612,-3.998097 -8.92999612,-8.93 0,-4.931903 3.99808992,-8.93 8.92999612,-8.93 h 3.54 c 1.666666,0 1.648715,1.732232 0,1.97619 L 9.18,11.07 c -3.512944,0.519806 -6.4299972,2.878809 -6.4299972,6.43 0,3.551191 2.8788039,6.43 6.4299972,6.43 h 3.54 c 3.548908,-0.0055 6.424494,-2.881092 6.43,-6.43 0,-1.666666 1.547619,-1.761904 1.547619,-0.09524 -0.0055,4.92962 -3.048001,9.019729 -7.977619,9.02524 z" />
  <path
     id="path12"
     d="m 25.82,26.43 h -3.54 c -1.666666,0 -1.686234,-1.528839 -0.04762,-1.833333 L 25.82,23.93 c 3.491424,-0.648791 6.429997,-2.878809 6.429997,-6.43 0,-3.551191 -2.878804,-6.43 -6.429997,-6.43 h -3.54 c -3.548908,0.0055 -6.091161,2.928711 -6.096667,6.477619 0,1.666666 -1.690476,1.714285 -1.690476,0.04762 C 14.498368,12.66562 17.350382,8.575511 22.28,8.57 h 3.54 c 4.931906,0 8.929996,3.998097 8.929996,8.93 0,4.931903 -3.99809,8.93 -8.929996,8.93 z" />
</svg>
