<svg xmlns="http://www.w3.org/2000/svg" version="1.0" width="256.000000pt" height="256.000000pt" viewBox="0 0 256.000000 256.000000" preserveAspectRatio="xMidYMid meet">
<metadata fill="#ffffff">
Created by potrace 1.16, written by Peter Selinger 2001-2019
</metadata>
<g transform="translate(0.000000,256.000000) scale(0.100000,-0.100000)" fill="#ffffff" stroke="none">
<path d="M2126 2435 c-27 -9 -76 -50 -150 -124 l-111 -110 -85 29 c-295 101 -597 36 -830 -178 l-55 -50 98 -99 98 -99 -22 -20 c-33 -30 -49 -69 -49 -119 0 -56 10 -77 64 -133 52 -55 84 -72 135 -72 50 0 89 15 121 45 l26 25 102 -103 103 -103 -22 -20 c-11 -10 -27 -31 -35 -46 -17 -32 -18 -111 -3 -141 16 -32 90 -106 121 -123 55 -29 151 -11 192 35 l20 22 96 -96 97 -96 66 70 c198 210 264 530 167 811 l-29 84 114 117 c64 65 117 128 121 143 3 15 4 52 2 82 -5 55 -6 56 -104 155 -54 55 -106 104 -114 109 -31 17 -95 19 -134 5z m158 -194 c66 -67 87 -93 82 -107 -3 -11 -66 -79 -140 -153 l-135 -134 29 -56 c115 -230 102 -478 -37 -695 l-45 -69 -96 96 -97 96 -67 -65 -67 -65 -30 15 c-30 16 -71 61 -71 78 0 5 27 38 60 72 33 35 60 67 60 72 0 5 -82 91 -182 191 l-182 182 -68 -65 -67 -65 -30 15 c-30 16 -71 61 -71 78 0 5 27 38 60 72 33 35 60 67 60 72 0 5 -41 50 -91 100 l-92 92 44 32 c199 145 467 168 694 61 l80 -38 141 138 c77 77 147 139 155 139 8 0 54 -40 103 -89z" fill="#ffffff"/>
<path d="M603 1708 c-223 -238 -291 -564 -180 -859 l25 -66 -105 -104 c-134 -132 -164 -194 -133 -275 16 -40 179 -204 225 -225 89 -41 142 -18 283 124 l104 104 81 -28 c298 -102 624 -31 832 180 l50 51 -565 565 c-311 311 -570 565 -576 565 -5 0 -24 -15 -41 -32z m532 -618 l480 -481 -25 -20 c-47 -37 -145 -87 -215 -111 -59 -19 -90 -23 -200 -23 -141 0 -183 9 -307 67 l-69 31 -138 -136 c-80 -79 -146 -137 -157 -137 -25 0 -184 159 -184 185 0 12 47 67 122 142 114 114 122 125 110 144 -11 18 -11 23 4 34 17 12 16 16 -9 72 -79 176 -75 408 9 575 31 62 82 138 92 138 4 0 223 -216 487 -480z" fill="#ffffff"/>
</g>
</svg>