<svg xmlns="http://www.w3.org/2000/svg" xmlns:xlink="http://www.w3.org/1999/xlink" fill="#ffffff" height="800px" width="800px" version="1.1" id="Capa_1" viewBox="0 0 490 490" xml:space="preserve">
<g>
	<g>
		<path d="M245,0C109.5,0,0,109.5,0,245s109.5,245,245,245s245-109.5,245-245S380.5,0,245,0z M245,449.3    c-112.6,0-204.3-91.7-204.3-204.3S132.4,40.7,245,40.7S449.3,132.4,449.3,245S357.6,449.3,245,449.3z" fill="#ffffff"/>
		<path d="M323.2,287.7c-20.9,20.9-49,32.3-78.2,32.3s-57.3-11.5-78.2-32.3c-8.3-8.3-20.9-8.3-29.2,0s-8.3,20.9,0,29.2    c29.2,29.2,66.7,44.8,107.4,44.8s78.2-15.6,107.4-44.8c8.3-8.3,8.3-20.9,0-29.2C344,279.4,331.5,279.4,323.2,287.7z" fill="#ffffff"/>
		<circle cx="156.4" cy="173.5" r="20.5" fill="#ffffff"/>
		<circle cx="333.6" cy="173.5" r="20.5" fill="#ffffff"/>
	</g>
</g>
</svg>