<svg xmlns="http://www.w3.org/2000/svg" version="1.0" width="200.000000pt" height="200.000000pt" viewBox="0 0 200.000000 200.000000" preserveAspectRatio="xMidYMid meet">  <g transform="translate(0.000000,200.000000) scale(0.100000,-0.100000)" fill="#ffffff" stroke="none"> <path d="M872 1950 c-398 -56 -710 -340 -809 -738 -24 -93 -23 -331 0 -426 71 -283 255 -513 514 -641 52 -25 96 -45 97 -43 6 7 196 489 196 496 0 4 -29 22 -65 41 -154 79 -246 262 -216 427 52 278 332 428 583 312 83 -38 167 -122 206 -205 24 -52 27 -69 27 -168 0 -103 -2 -114 -32 -177 -40 -84 -113 -159 -191 -196 l-58 -28 101 -253 102 -252 94 48 c228 117 389 299 473 534 46 128 60 224 53 367 -11 249 -106 461 -284 633 -131 128 -274 208 -445 249 -97 23 -256 33 -346 20z m368 -89 c506 -146 778 -693 588 -1184 -41 -107 -133 -241 -222 -323 -78 -73 -232 -172 -245 -158 -10 11 -151 359 -151 371 0 5 15 16 33 25 82 40 169 147 209 256 30 83 30 235 -1 314 -52 134 -154 240 -279 290 -48 19 -76 23 -177 23 -118 0 -121 -1 -198 -37 -174 -84 -277 -244 -277 -433 1 -86 13 -141 48 -213 33 -68 119 -164 179 -199 24 -14 43 -28 41 -32 -2 -4 -34 -85 -72 -181 -38 -96 -72 -179 -76 -183 -18 -20 -185 88 -275 178 -105 104 -173 218 -219 362 -104 331 -10 680 247 919 115 106 264 186 412 218 103 23 334 16 435 -13z" fill="#ffffff"/> </g> </svg>