<svg xmlns="http://www.w3.org/2000/svg" version="1.0" width="225.000000pt" height="225.000000pt" viewBox="0 0 225.000000 225.000000" preserveAspectRatio="xMidYMid meet">
<metadata fill="#ffffff">
Created by potrace 1.16, written by Peter Selinger 2001-2019
</metadata>
<g transform="translate(0.000000,225.000000) scale(0.100000,-0.100000)" fill="#ffffff" stroke="none">
<path d="M116 1919 l-26 -20 0 -695 c0 -460 4 -702 10 -715 10 -18 27 -19 517 -19 l505 0 48 -35 c100 -74 264 -126 394 -125 133 1 297 54 393 128 38 28 50 32 107 32 105 0 96 -68 96 733 l0 696 -26 20 c-27 21 -30 21 -1009 21 -979 0 -982 0 -1009 -21z m1875 -139 c18 -10 19 -26 19 -450 l0 -440 -47 36 c-105 80 -203 114 -348 121 -139 6 -230 -12 -344 -68 -98 -49 -217 -155 -270 -244 -34 -56 -34 -57 -18 -91 l17 -34 -380 0 -380 0 0 185 0 185 116 0 116 0 102 93 101 94 47 -6 c46 -6 50 -9 108 -88 42 -58 60 -91 60 -112 0 -45 45 -91 95 -97 51 -7 105 26 118 72 6 21 66 88 176 198 161 161 168 167 195 156 114 -43 256 56 256 180 0 36 -23 93 -51 125 -85 96 -251 78 -309 -35 -21 -42 -27 -133 -10 -160 7 -12 -25 -49 -147 -172 -86 -86 -160 -155 -165 -152 -4 3 -26 5 -47 6 -37 0 -42 4 -98 82 -39 53 -62 95 -66 121 -14 90 -120 127 -186 66 -17 -16 -31 -39 -31 -51 0 -15 -31 -55 -92 -116 l-92 -94 -98 0 -98 0 0 340 c0 312 1 340 18 349 24 14 1706 15 1733 1z m-392 -256 c45 -57 5 -134 -69 -134 -32 0 -70 44 -70 81 0 74 95 109 139 53z m-114 -643 c-102 -47 -154 -154 -125 -260 15 -56 79 -125 133 -145 57 -20 16 -21 -74 -2 -111 24 -214 86 -269 162 l-32 45 26 34 c60 78 157 138 271 166 93 23 120 23 70 0z m233 4 c118 -28 237 -105 277 -179 l19 -35 -30 -38 c-65 -81 -203 -151 -330 -167 l-49 -7 39 15 c58 22 114 81 133 143 14 45 15 60 4 109 -15 66 -65 127 -126 155 -49 23 -24 24 63 4z m-95 -153 c24 -21 22 -77 -3 -102 -43 -43 -123 -12 -123 48 0 69 72 101 126 54z" fill="#ffffff"/>
</g>
</svg>