<svg xmlns="http://www.w3.org/2000/svg" version="1.0" width="225.000000pt" height="225.000000pt" viewBox="0 0 225.000000 225.000000" preserveAspectRatio="xMidYMid meet">
<metadata fill="#ffffff">
Created by potrace 1.16, written by Peter Selinger 2001-2019
</metadata>
<g transform="translate(0.000000,225.000000) scale(0.100000,-0.100000)" fill="#ffffff" stroke="none">
<path d="M958 2165 c-336 -53 -628 -270 -778 -580 -144 -296 -144 -624 0 -920 105 -217 268 -380 485 -485 296 -144 624 -144 920 0 216 104 381 269 485 485 144 296 144 624 0 920 -203 419 -650 651 -1112 580z m367 -41 c506 -96 867 -582 814 -1097 -25 -246 -125 -455 -300 -627 -195 -193 -439 -292 -714 -292 -277 0 -519 99 -714 292 -176 173 -275 380 -300 627 -24 228 32 455 159 651 228 353 636 525 1055 446z" fill="#ffffff"/>
<path d="M1010 2119 c-41 -4 -115 -20 -165 -34 -394 -115 -676 -456 -714 -863 -28 -303 75 -589 288 -803 126 -126 277 -213 451 -261 74 -20 108 -23 260 -23 153 0 185 3 255 23 407 118 696 460 734 869 51 554 -342 1035 -894 1093 -100 11 -109 11 -215 -1z m308 -45 c190 -39 343 -123 488 -268 149 -149 232 -303 269 -501 21 -111 16 -316 -11 -415 -84 -316 -321 -574 -621 -676 -121 -41 -199 -54 -326 -54 -434 0 -816 301 -933 735 -29 109 -27 361 4 474 49 178 134 322 266 449 149 142 318 230 504 262 84 14 278 11 360 -6z" fill="#ffffff"/>
<path d="M1041 1623 c-96 -60 -175 -88 -280 -99 l-72 -7 3 -271 3 -271 37 -76 c42 -86 101 -156 191 -227 107 -85 169 -108 249 -91 102 22 288 189 350 316 l33 68 3 278 3 277 -35 0 c-97 0 -264 59 -351 124 -16 12 -34 25 -40 28 -5 2 -48 -19 -94 -49z m303 -101 c38 -13 95 -25 128 -29 l59 -6 -3 -251 c-3 -251 -3 -251 -31 -311 -53 -112 -156 -220 -278 -290 -92 -52 -181 -25 -314 97 -89 82 -135 148 -164 236 -19 55 -21 86 -21 292 l0 230 33 0 c84 0 245 58 336 122 l34 24 77 -46 c42 -25 107 -56 144 -68z" fill="#ffffff"/>
<path d="M1094 1589 c-91 -62 -201 -105 -299 -118 l-50 -6 -3 -204 c-3 -225 7 -288 55 -371 38 -64 125 -152 205 -207 61 -42 75 -47 122 -47 70 0 128 35 232 138 58 58 90 101 115 151 l34 69 3 233 3 232 -23 5 c-119 23 -152 32 -213 61 -38 18 -88 45 -111 59 l-40 25 -30 -20z m271 -133 c33 -8 73 -18 88 -21 l28 -6 -3 -212 -3 -212 -35 -69 c-54 -108 -199 -244 -286 -267 -45 -13 -104 13 -187 82 -78 64 -122 118 -158 194 l-29 60 0 216 0 216 48 7 c72 10 163 43 233 85 l62 38 91 -48 c50 -26 118 -55 151 -63z" fill="#ffffff"/>
<path d="M1209 1189 l-123 -131 -62 66 c-34 36 -68 66 -76 66 -22 0 -38 -21 -38 -50 1 -32 148 -190 178 -190 30 0 302 292 302 324 0 23 -24 46 -48 46 -5 0 -65 -59 -133 -131z" fill="#ffffff"/>
</g>
</svg>